{
    "asset" : {
        "generator" : "Khronos glTF Blender I/O v1.8.19",
        "version" : "2.0"
    },
    "scene" : 0,
    "scenes" : [
        {
            "name" : "Scene",
            "nodes" : [
                0,
                1,
                2,
                3,
                4,
                5
            ]
        }
    ],
    "nodes" : [
        {
            "mesh" : 0,
            "name" : "LOD0",
            "rotation" : [
                0.7071068286895752,
                0,
                0,
                0.7071067094802856
            ]
        },
        {
            "mesh" : 1,
            "name" : "LOD1",
            "rotation" : [
                0.7071068286895752,
                0,
                0,
                0.7071067094802856
            ]
        },
        {
            "mesh" : 2,
            "name" : "LOD2",
            "rotation" : [
                0.7071068286895752,
                0,
                0,
                0.7071067094802856
            ]
        },
        {
            "mesh" : 3,
            "name" : "LOD3",
            "rotation" : [
                0.7071068286895752,
                0,
                0,
                0.7071067094802856
            ]
        },
        {
            "mesh" : 4,
            "name" : "LOD4",
            "rotation" : [
                0.7071068286895752,
                0,
                0,
                0.7071067094802856
            ]
        },
        {
            "mesh" : 5,
            "name" : "LOD5",
            "rotation" : [
                0.7071068286895752,
                0,
                0,
                0.7071067094802856
            ]
        }
    ],
    "meshes" : [
        {
            "name" : "LOD0",
            "primitives" : [
                {
                    "attributes" : {
                        "POSITION" : 0,
                        "NORMAL" : 1,
                        "TEXCOORD_0" : 2
                    },
                    "indices" : 3
                }
            ]
        },
        {
            "name" : "LOD1",
            "primitives" : [
                {
                    "attributes" : {
                        "POSITION" : 4,
                        "NORMAL" : 5,
                        "TEXCOORD_0" : 6
                    },
                    "indices" : 7
                }
            ]
        },
        {
            "name" : "LOD2",
            "primitives" : [
                {
                    "attributes" : {
                        "POSITION" : 8,
                        "NORMAL" : 9,
                        "TEXCOORD_0" : 10
                    },
                    "indices" : 11
                }
            ]
        },
        {
            "name" : "LOD3",
            "primitives" : [
                {
                    "attributes" : {
                        "POSITION" : 12,
                        "NORMAL" : 13,
                        "TEXCOORD_0" : 14
                    },
                    "indices" : 15
                }
            ]
        },
        {
            "name" : "LOD4",
            "primitives" : [
                {
                    "attributes" : {
                        "POSITION" : 16,
                        "NORMAL" : 17,
                        "TEXCOORD_0" : 18
                    },
                    "indices" : 19
                }
            ]
        },
        {
            "name" : "LOD5",
            "primitives" : [
                {
                    "attributes" : {
                        "POSITION" : 20,
                        "NORMAL" : 21,
                        "TEXCOORD_0" : 22
                    },
                    "indices" : 23
                }
            ]
        }
    ],
    "accessors" : [
        {
            "bufferView" : 0,
            "componentType" : 5126,
            "count" : 2111,
            "max" : [
                1.3259350061416626,
                0.8223199844360352,
                0.9704859852790833
            ],
            "min" : [
                -1.3259350061416626,
                -0.7782660126686096,
                -0.9392359852790833
            ],
            "type" : "VEC3"
        },
        {
            "bufferView" : 1,
            "componentType" : 5126,
            "count" : 2111,
            "type" : "VEC3"
        },
        {
            "bufferView" : 2,
            "componentType" : 5126,
            "count" : 2111,
            "type" : "VEC2"
        },
        {
            "bufferView" : 3,
            "componentType" : 5123,
            "count" : 11808,
            "type" : "SCALAR"
        },
        {
            "bufferView" : 4,
            "componentType" : 5126,
            "count" : 558,
            "max" : [
                1.3671879768371582,
                0.8515620231628418,
                0.984375
            ],
            "min" : [
                -1.3671879768371582,
                -0.8515620231628418,
                -0.984375
            ],
            "type" : "VEC3"
        },
        {
            "bufferView" : 5,
            "componentType" : 5126,
            "count" : 558,
            "type" : "VEC3"
        },
        {
            "bufferView" : 6,
            "componentType" : 5126,
            "count" : 558,
            "type" : "VEC2"
        },
        {
            "bufferView" : 7,
            "componentType" : 5123,
            "count" : 2901,
            "type" : "SCALAR"
        },
        {
            "bufferView" : 8,
            "componentType" : 5126,
            "count" : 270,
            "max" : [
                1.3632800579071045,
                0.8564040064811707,
                0.9784049987792969
            ],
            "min" : [
                -1.3632800579071045,
                -0.8515620231628418,
                -0.984375
            ],
            "type" : "VEC3"
        },
        {
            "bufferView" : 9,
            "componentType" : 5126,
            "count" : 270,
            "type" : "VEC3"
        },
        {
            "bufferView" : 10,
            "componentType" : 5126,
            "count" : 270,
            "type" : "VEC2"
        },
        {
            "bufferView" : 11,
            "componentType" : 5123,
            "count" : 1287,
            "type" : "SCALAR"
        },
        {
            "bufferView" : 12,
            "componentType" : 5126,
            "count" : 132,
            "max" : [
                1.3219460248947144,
                0.8623449802398682,
                1.0068730115890503
            ],
            "min" : [
                -1.3219460248947144,
                -0.8515620231628418,
                -0.9752609729766846
            ],
            "type" : "VEC3"
        },
        {
            "bufferView" : 13,
            "componentType" : 5126,
            "count" : 132,
            "type" : "VEC3"
        },
        {
            "bufferView" : 14,
            "componentType" : 5126,
            "count" : 132,
            "type" : "VEC2"
        },
        {
            "bufferView" : 15,
            "componentType" : 5123,
            "count" : 513,
            "type" : "SCALAR"
        },
        {
            "bufferView" : 16,
            "componentType" : 5126,
            "count" : 12,
            "max" : [
                0.8908119797706604,
                0.7303460240364075,
                0.8468379974365234
            ],
            "min" : [
                -0.8908119797706604,
                -0.4612779915332794,
                -0.9637479782104492
            ],
            "type" : "VEC3"
        },
        {
            "bufferView" : 17,
            "componentType" : 5126,
            "count" : 12,
            "type" : "VEC3"
        },
        {
            "bufferView" : 18,
            "componentType" : 5126,
            "count" : 12,
            "type" : "VEC2"
        },
        {
            "bufferView" : 19,
            "componentType" : 5123,
            "count" : 60,
            "type" : "SCALAR"
        },
        {
            "bufferView" : 20,
            "componentType" : 5126,
            "count" : 8,
            "max" : [
                0.8908119797706604,
                0.8061509728431702,
                0.8468379974365234
            ],
            "min" : [
                -0.8908119797706604,
                -0.4612779915332794,
                -0.9637479782104492
            ],
            "type" : "VEC3"
        },
        {
            "bufferView" : 21,
            "componentType" : 5126,
            "count" : 8,
            "type" : "VEC3"
        },
        {
            "bufferView" : 22,
            "componentType" : 5126,
            "count" : 8,
            "type" : "VEC2"
        },
        {
            "bufferView" : 23,
            "componentType" : 5123,
            "count" : 36,
            "type" : "SCALAR"
        }
    ],
    "bufferViews" : [
        {
            "buffer" : 0,
            "byteLength" : 25332,
            "byteOffset" : 0
        },
        {
            "buffer" : 0,
            "byteLength" : 25332,
            "byteOffset" : 25332
        },
        {
            "buffer" : 0,
            "byteLength" : 16888,
            "byteOffset" : 50664
        },
        {
            "buffer" : 0,
            "byteLength" : 23616,
            "byteOffset" : 67552
        },
        {
            "buffer" : 0,
            "byteLength" : 6696,
            "byteOffset" : 91168
        },
        {
            "buffer" : 0,
            "byteLength" : 6696,
            "byteOffset" : 97864
        },
        {
            "buffer" : 0,
            "byteLength" : 4464,
            "byteOffset" : 104560
        },
        {
            "buffer" : 0,
            "byteLength" : 5802,
            "byteOffset" : 109024
        },
        {
            "buffer" : 0,
            "byteLength" : 3240,
            "byteOffset" : 114828
        },
        {
            "buffer" : 0,
            "byteLength" : 3240,
            "byteOffset" : 118068
        },
        {
            "buffer" : 0,
            "byteLength" : 2160,
            "byteOffset" : 121308
        },
        {
            "buffer" : 0,
            "byteLength" : 2574,
            "byteOffset" : 123468
        },
        {
            "buffer" : 0,
            "byteLength" : 1584,
            "byteOffset" : 126044
        },
        {
            "buffer" : 0,
            "byteLength" : 1584,
            "byteOffset" : 127628
        },
        {
            "buffer" : 0,
            "byteLength" : 1056,
            "byteOffset" : 129212
        },
        {
            "buffer" : 0,
            "byteLength" : 1026,
            "byteOffset" : 130268
        },
        {
            "buffer" : 0,
            "byteLength" : 144,
            "byteOffset" : 131296
        },
        {
            "buffer" : 0,
            "byteLength" : 144,
            "byteOffset" : 131440
        },
        {
            "buffer" : 0,
            "byteLength" : 96,
            "byteOffset" : 131584
        },
        {
            "buffer" : 0,
            "byteLength" : 120,
            "byteOffset" : 131680
        },
        {
            "buffer" : 0,
            "byteLength" : 96,
            "byteOffset" : 131800
        },
        {
            "buffer" : 0,
            "byteLength" : 96,
            "byteOffset" : 131896
        },
        {
            "buffer" : 0,
            "byteLength" : 64,
            "byteOffset" : 131992
        },
        {
            "buffer" : 0,
            "byteLength" : 72,
            "byteOffset" : 132056
        }
    ],
    "buffers" : [
        {
            "byteLength" : 132128,
            "uri" : "monkey.bin"
        }
    ]
}
