{
    "asset" : {
        "generator" : "Khronos glTF Blender I/O v1.8.19",
        "version" : "2.0"
    },
    "scene" : 0,
    "scenes" : [
        {
            "name" : "Scene",
            "nodes" : [
                0,
                1,
                2,
                3,
                4,
                5
            ]
        }
    ],
    "nodes" : [
        {
            "mesh" : 0,
            "name" : "LOD0"
        },
        {
            "mesh" : 1,
            "name" : "LOD1"
        },
        {
            "mesh" : 2,
            "name" : "LOD2"
        },
        {
            "mesh" : 3,
            "name" : "LOD3"
        },
        {
            "mesh" : 4,
            "name" : "LOD4"
        },
        {
            "mesh" : 5,
            "name" : "LOD5",
            "rotation" : [
                0.5,
                0,
                0,
                0.8660253882408142
            ]
        }
    ],
    "materials" : [
        {
            "doubleSided" : true,
            "name" : "Material.001",
            "pbrMetallicRoughness" : {
                "baseColorTexture" : {
                    "index" : 0
                },
                "metallicFactor" : 0,
                "roughnessFactor" : 0.5120000243186951
            }
        }
    ],
    "meshes" : [
        {
            "name" : "Mesh",
            "primitives" : [
                {
                    "attributes" : {
                        "POSITION" : 0,
                        "NORMAL" : 1,
                        "TEXCOORD_0" : 2
                    },
                    "indices" : 3,
                    "material" : 0
                }
            ]
        },
        {
            "name" : "LOD1",
            "primitives" : [
                {
                    "attributes" : {
                        "POSITION" : 4,
                        "NORMAL" : 5,
                        "TEXCOORD_0" : 6
                    },
                    "indices" : 7,
                    "material" : 0
                }
            ]
        },
        {
            "name" : "LOD2",
            "primitives" : [
                {
                    "attributes" : {
                        "POSITION" : 8,
                        "NORMAL" : 9,
                        "TEXCOORD_0" : 10
                    },
                    "indices" : 11,
                    "material" : 0
                }
            ]
        },
        {
            "name" : "LOD3",
            "primitives" : [
                {
                    "attributes" : {
                        "POSITION" : 12,
                        "NORMAL" : 13,
                        "TEXCOORD_0" : 14
                    },
                    "indices" : 15,
                    "material" : 0
                }
            ]
        },
        {
            "name" : "LOD4",
            "primitives" : [
                {
                    "attributes" : {
                        "POSITION" : 16,
                        "NORMAL" : 17,
                        "TEXCOORD_0" : 18
                    },
                    "indices" : 19,
                    "material" : 0
                }
            ]
        },
        {
            "name" : "LOD6",
            "primitives" : [
                {
                    "attributes" : {
                        "POSITION" : 20,
                        "NORMAL" : 21,
                        "TEXCOORD_0" : 22
                    },
                    "indices" : 23,
                    "material" : 0
                }
            ]
        }
    ],
    "textures" : [
        {
            "sampler" : 0,
            "source" : 0
        }
    ],
    "images" : [
        {
            "mimeType" : "image/jpeg",
            "name" : "monkey.jpg",
            "uri" : "monkey.jpg"
        }
    ],
    "accessors" : [
        {
            "bufferView" : 0,
            "componentType" : 5126,
            "count" : 2773,
            "max" : [
                1.325934886932373,
                0.9392362236976624,
                0.8223199844360352
            ],
            "min" : [
                -1.325934886932373,
                -0.9704861640930176,
                -0.7782661318778992
            ],
            "type" : "VEC3"
        },
        {
            "bufferView" : 1,
            "componentType" : 5126,
            "count" : 2773,
            "type" : "VEC3"
        },
        {
            "bufferView" : 2,
            "componentType" : 5126,
            "count" : 2773,
            "type" : "VEC2"
        },
        {
            "bufferView" : 3,
            "componentType" : 5123,
            "count" : 11808,
            "type" : "SCALAR"
        },
        {
            "bufferView" : 4,
            "componentType" : 5126,
            "count" : 586,
            "max" : [
                1.3671875,
                0.984375,
                0.8515625
            ],
            "min" : [
                -1.3671875,
                -0.984375,
                -0.8515625
            ],
            "type" : "VEC3"
        },
        {
            "bufferView" : 5,
            "componentType" : 5126,
            "count" : 586,
            "type" : "VEC3"
        },
        {
            "bufferView" : 6,
            "componentType" : 5126,
            "count" : 586,
            "type" : "VEC2"
        },
        {
            "bufferView" : 7,
            "componentType" : 5123,
            "count" : 2904,
            "type" : "SCALAR"
        },
        {
            "bufferView" : 8,
            "componentType" : 5126,
            "count" : 353,
            "max" : [
                1.3671875,
                0.9296875,
                0.84375
            ],
            "min" : [
                -1.3671875,
                -0.984375,
                -0.828125
            ],
            "type" : "VEC3"
        },
        {
            "bufferView" : 9,
            "componentType" : 5126,
            "count" : 353,
            "type" : "VEC3"
        },
        {
            "bufferView" : 10,
            "componentType" : 5126,
            "count" : 353,
            "type" : "VEC2"
        },
        {
            "bufferView" : 11,
            "componentType" : 5123,
            "count" : 1596,
            "type" : "SCALAR"
        },
        {
            "bufferView" : 12,
            "componentType" : 5126,
            "count" : 94,
            "max" : [
                1.291776418685913,
                0.9296875,
                0.8236817717552185
            ],
            "min" : [
                -1.291776418685913,
                -1.0118190050125122,
                -0.828125
            ],
            "type" : "VEC3"
        },
        {
            "bufferView" : 13,
            "componentType" : 5126,
            "count" : 94,
            "type" : "VEC3"
        },
        {
            "bufferView" : 14,
            "componentType" : 5126,
            "count" : 94,
            "type" : "VEC2"
        },
        {
            "bufferView" : 15,
            "componentType" : 5123,
            "count" : 294,
            "type" : "SCALAR"
        },
        {
            "bufferView" : 16,
            "componentType" : 5126,
            "count" : 64,
            "max" : [
                1.1096172332763672,
                0.8737032413482666,
                0.8508606553077698
            ],
            "min" : [
                -1.1096172332763672,
                -0.9488450288772583,
                -0.6700502038002014
            ],
            "type" : "VEC3"
        },
        {
            "bufferView" : 17,
            "componentType" : 5126,
            "count" : 64,
            "type" : "VEC3"
        },
        {
            "bufferView" : 18,
            "componentType" : 5126,
            "count" : 64,
            "type" : "VEC2"
        },
        {
            "bufferView" : 19,
            "componentType" : 5123,
            "count" : 132,
            "type" : "SCALAR"
        },
        {
            "bufferView" : 20,
            "componentType" : 5126,
            "count" : 7,
            "max" : [
                1,
                0.878772497177124,
                1.4540828466415405
            ],
            "min" : [
                -1,
                -0.16736340522766113,
                -0.9503917098045349
            ],
            "type" : "VEC3"
        },
        {
            "bufferView" : 21,
            "componentType" : 5126,
            "count" : 7,
            "type" : "VEC3"
        },
        {
            "bufferView" : 22,
            "componentType" : 5126,
            "count" : 7,
            "type" : "VEC2"
        },
        {
            "bufferView" : 23,
            "componentType" : 5123,
            "count" : 12,
            "type" : "SCALAR"
        }
    ],
    "bufferViews" : [
        {
            "buffer" : 0,
            "byteLength" : 33276,
            "byteOffset" : 0
        },
        {
            "buffer" : 0,
            "byteLength" : 33276,
            "byteOffset" : 33276
        },
        {
            "buffer" : 0,
            "byteLength" : 22184,
            "byteOffset" : 66552
        },
        {
            "buffer" : 0,
            "byteLength" : 23616,
            "byteOffset" : 88736
        },
        {
            "buffer" : 0,
            "byteLength" : 7032,
            "byteOffset" : 112352
        },
        {
            "buffer" : 0,
            "byteLength" : 7032,
            "byteOffset" : 119384
        },
        {
            "buffer" : 0,
            "byteLength" : 4688,
            "byteOffset" : 126416
        },
        {
            "buffer" : 0,
            "byteLength" : 5808,
            "byteOffset" : 131104
        },
        {
            "buffer" : 0,
            "byteLength" : 4236,
            "byteOffset" : 136912
        },
        {
            "buffer" : 0,
            "byteLength" : 4236,
            "byteOffset" : 141148
        },
        {
            "buffer" : 0,
            "byteLength" : 2824,
            "byteOffset" : 145384
        },
        {
            "buffer" : 0,
            "byteLength" : 3192,
            "byteOffset" : 148208
        },
        {
            "buffer" : 0,
            "byteLength" : 1128,
            "byteOffset" : 151400
        },
        {
            "buffer" : 0,
            "byteLength" : 1128,
            "byteOffset" : 152528
        },
        {
            "buffer" : 0,
            "byteLength" : 752,
            "byteOffset" : 153656
        },
        {
            "buffer" : 0,
            "byteLength" : 588,
            "byteOffset" : 154408
        },
        {
            "buffer" : 0,
            "byteLength" : 768,
            "byteOffset" : 154996
        },
        {
            "buffer" : 0,
            "byteLength" : 768,
            "byteOffset" : 155764
        },
        {
            "buffer" : 0,
            "byteLength" : 512,
            "byteOffset" : 156532
        },
        {
            "buffer" : 0,
            "byteLength" : 264,
            "byteOffset" : 157044
        },
        {
            "buffer" : 0,
            "byteLength" : 84,
            "byteOffset" : 157308
        },
        {
            "buffer" : 0,
            "byteLength" : 84,
            "byteOffset" : 157392
        },
        {
            "buffer" : 0,
            "byteLength" : 56,
            "byteOffset" : 157476
        },
        {
            "buffer" : 0,
            "byteLength" : 24,
            "byteOffset" : 157532
        }
    ],
    "samplers" : [
        {
            "magFilter" : 9729,
            "minFilter" : 9987
        }
    ],
    "buffers" : [
        {
            "byteLength" : 157556,
            "uri" : "monkey.bin"
        }
    ]
}
