{
    "asset" : {
        "generator" : "Khronos glTF Blender I/O v1.8.19",
        "version" : "2.0"
    },
    "scene" : 0,
    "scenes" : [
        {
            "name" : "Scene",
            "nodes" : [
                0,
                1,
                2,
                3,
                4,
                5
            ]
        }
    ],
    "nodes" : [
        {
            "mesh" : 0,
            "name" : "LOD0"
        },
        {
            "mesh" : 1,
            "name" : "LOD1"
        },
        {
            "mesh" : 2,
            "name" : "LOD2"
        },
        {
            "mesh" : 3,
            "name" : "LOD3"
        },
        {
            "mesh" : 4,
            "name" : "LOD4"
        },
        {
            "mesh" : 5,
            "name" : "LOD5",
            "rotation" : [
                0.5,
                0,
                0,
                0.8660253882408142
            ]
        }
    ],
    "meshes" : [
        {
            "name" : "Mesh",
            "primitives" : [
                {
                    "attributes" : {
                        "POSITION" : 0,
                        "NORMAL" : 1,
                        "TEXCOORD_0" : 2
                    },
                    "indices" : 3
                }
            ]
        },
        {
            "name" : "LOD1",
            "primitives" : [
                {
                    "attributes" : {
                        "POSITION" : 4,
                        "NORMAL" : 5,
                        "TEXCOORD_0" : 6
                    },
                    "indices" : 7
                }
            ]
        },
        {
            "name" : "LOD2",
            "primitives" : [
                {
                    "attributes" : {
                        "POSITION" : 8,
                        "NORMAL" : 9,
                        "TEXCOORD_0" : 10
                    },
                    "indices" : 11
                }
            ]
        },
        {
            "name" : "LOD3",
            "primitives" : [
                {
                    "attributes" : {
                        "POSITION" : 12,
                        "NORMAL" : 13,
                        "TEXCOORD_0" : 14
                    },
                    "indices" : 15
                }
            ]
        },
        {
            "name" : "LOD4",
            "primitives" : [
                {
                    "attributes" : {
                        "POSITION" : 16,
                        "NORMAL" : 17,
                        "TEXCOORD_0" : 18
                    },
                    "indices" : 19
                }
            ]
        },
        {
            "name" : "LOD6",
            "primitives" : [
                {
                    "attributes" : {
                        "POSITION" : 20,
                        "NORMAL" : 21,
                        "TEXCOORD_0" : 22
                    },
                    "indices" : 23
                }
            ]
        }
    ],
    "accessors" : [
        {
            "bufferView" : 0,
            "componentType" : 5126,
            "count" : 2773,
            "max" : [
                1.325934886932373,
                0.9392362236976624,
                0.8223199844360352
            ],
            "min" : [
                -1.325934886932373,
                -0.9704861640930176,
                -0.7782661318778992
            ],
            "type" : "VEC3"
        },
        {
            "bufferView" : 1,
            "componentType" : 5126,
            "count" : 2773,
            "type" : "VEC3"
        },
        {
            "bufferView" : 2,
            "componentType" : 5126,
            "count" : 2773,
            "type" : "VEC2"
        },
        {
            "bufferView" : 3,
            "componentType" : 5123,
            "count" : 11808,
            "type" : "SCALAR"
        },
        {
            "bufferView" : 4,
            "componentType" : 5126,
            "count" : 586,
            "max" : [
                1.3671875,
                0.984375,
                0.8515625
            ],
            "min" : [
                -1.3671875,
                -0.984375,
                -0.8515625
            ],
            "type" : "VEC3"
        },
        {
            "bufferView" : 5,
            "componentType" : 5126,
            "count" : 586,
            "type" : "VEC3"
        },
        {
            "bufferView" : 6,
            "componentType" : 5126,
            "count" : 586,
            "type" : "VEC2"
        },
        {
            "bufferView" : 7,
            "componentType" : 5123,
            "count" : 2904,
            "type" : "SCALAR"
        },
        {
            "bufferView" : 8,
            "componentType" : 5126,
            "count" : 344,
            "max" : [
                1.3671875,
                0.9296875,
                0.84375
            ],
            "min" : [
                -1.3671875,
                -0.984375,
                -0.828125
            ],
            "type" : "VEC3"
        },
        {
            "bufferView" : 9,
            "componentType" : 5126,
            "count" : 344,
            "type" : "VEC3"
        },
        {
            "bufferView" : 10,
            "componentType" : 5126,
            "count" : 344,
            "type" : "VEC2"
        },
        {
            "bufferView" : 11,
            "componentType" : 5123,
            "count" : 1638,
            "type" : "SCALAR"
        },
        {
            "bufferView" : 12,
            "componentType" : 5126,
            "count" : 84,
            "max" : [
                1.291776418685913,
                0.9296875,
                0.8236817717552185
            ],
            "min" : [
                -1.291776418685913,
                -1.0118190050125122,
                -0.828125
            ],
            "type" : "VEC3"
        },
        {
            "bufferView" : 13,
            "componentType" : 5126,
            "count" : 84,
            "type" : "VEC3"
        },
        {
            "bufferView" : 14,
            "componentType" : 5126,
            "count" : 84,
            "type" : "VEC2"
        },
        {
            "bufferView" : 15,
            "componentType" : 5123,
            "count" : 294,
            "type" : "SCALAR"
        },
        {
            "bufferView" : 16,
            "componentType" : 5126,
            "count" : 92,
            "max" : [
                1.1096172332763672,
                0.8737032413482666,
                0.8508606553077698
            ],
            "min" : [
                -1.1096172332763672,
                -0.9488450288772583,
                -0.6700502038002014
            ],
            "type" : "VEC3"
        },
        {
            "bufferView" : 17,
            "componentType" : 5126,
            "count" : 92,
            "type" : "VEC3"
        },
        {
            "bufferView" : 18,
            "componentType" : 5126,
            "count" : 92,
            "type" : "VEC2"
        },
        {
            "bufferView" : 19,
            "componentType" : 5123,
            "count" : 132,
            "type" : "SCALAR"
        },
        {
            "bufferView" : 20,
            "componentType" : 5126,
            "count" : 12,
            "max" : [
                1,
                0.878772497177124,
                1.4540828466415405
            ],
            "min" : [
                -1,
                -0.16736340522766113,
                -0.9503917098045349
            ],
            "type" : "VEC3"
        },
        {
            "bufferView" : 21,
            "componentType" : 5126,
            "count" : 12,
            "type" : "VEC3"
        },
        {
            "bufferView" : 22,
            "componentType" : 5126,
            "count" : 12,
            "type" : "VEC2"
        },
        {
            "bufferView" : 23,
            "componentType" : 5123,
            "count" : 12,
            "type" : "SCALAR"
        }
    ],
    "bufferViews" : [
        {
            "buffer" : 0,
            "byteLength" : 33276,
            "byteOffset" : 0
        },
        {
            "buffer" : 0,
            "byteLength" : 33276,
            "byteOffset" : 33276
        },
        {
            "buffer" : 0,
            "byteLength" : 22184,
            "byteOffset" : 66552
        },
        {
            "buffer" : 0,
            "byteLength" : 23616,
            "byteOffset" : 88736
        },
        {
            "buffer" : 0,
            "byteLength" : 7032,
            "byteOffset" : 112352
        },
        {
            "buffer" : 0,
            "byteLength" : 7032,
            "byteOffset" : 119384
        },
        {
            "buffer" : 0,
            "byteLength" : 4688,
            "byteOffset" : 126416
        },
        {
            "buffer" : 0,
            "byteLength" : 5808,
            "byteOffset" : 131104
        },
        {
            "buffer" : 0,
            "byteLength" : 4128,
            "byteOffset" : 136912
        },
        {
            "buffer" : 0,
            "byteLength" : 4128,
            "byteOffset" : 141040
        },
        {
            "buffer" : 0,
            "byteLength" : 2752,
            "byteOffset" : 145168
        },
        {
            "buffer" : 0,
            "byteLength" : 3276,
            "byteOffset" : 147920
        },
        {
            "buffer" : 0,
            "byteLength" : 1008,
            "byteOffset" : 151196
        },
        {
            "buffer" : 0,
            "byteLength" : 1008,
            "byteOffset" : 152204
        },
        {
            "buffer" : 0,
            "byteLength" : 672,
            "byteOffset" : 153212
        },
        {
            "buffer" : 0,
            "byteLength" : 588,
            "byteOffset" : 153884
        },
        {
            "buffer" : 0,
            "byteLength" : 1104,
            "byteOffset" : 154472
        },
        {
            "buffer" : 0,
            "byteLength" : 1104,
            "byteOffset" : 155576
        },
        {
            "buffer" : 0,
            "byteLength" : 736,
            "byteOffset" : 156680
        },
        {
            "buffer" : 0,
            "byteLength" : 264,
            "byteOffset" : 157416
        },
        {
            "buffer" : 0,
            "byteLength" : 144,
            "byteOffset" : 157680
        },
        {
            "buffer" : 0,
            "byteLength" : 144,
            "byteOffset" : 157824
        },
        {
            "buffer" : 0,
            "byteLength" : 96,
            "byteOffset" : 157968
        },
        {
            "buffer" : 0,
            "byteLength" : 24,
            "byteOffset" : 158064
        }
    ],
    "buffers" : [
        {
            "byteLength" : 158088,
            "uri" : "monkey.bin"
        }
    ]
}
